<svg xmlns="http://www.w3.org/2000/svg" width="16.004" height="16.004"><path data-name="Контур 95" d="M12 0H4a3.962 3.962 0 00-4 4v8a3.962 3.962 0 004 4h8a3.962 3.962 0 004-4V4a3.962 3.962 0 00-4-4zm2.4 12a2.358 2.358 0 01-2.4 2.4H4A2.358 2.358 0 011.6 12V4A2.358 2.358 0 014 1.6h8A2.358 2.358 0 0114.4 4z" fill="#fff"/><path data-name="Контур 96" d="M8.001 4.001a4 4 0 104 4 3.962 3.962 0 00-4-4zm0 6.4a2.4 2.4 0 112.4-2.4 2.358 2.358 0 01-2.4 2.4z" fill="#fff"/><circle data-name="Эллипс 5" cx="1" cy="1" r="1" transform="translate(11 3)" fill="#fff"/></svg>