<svg xmlns="http://www.w3.org/2000/svg" width="136" height="39"><path data-name="Прямоугольник 1777" d="M0 0h136v39H0z" fill="none"/><path data-name="Контур 91" d="M10.322 14.274c0-4.241-6.262-3.248-6.262-5.45a1.123 1.123 0 011.3-1.155 1.371 1.371 0 011.461 1.318h3.339c-.126-2.418-1.985-3.79-4.746-3.79-2.653 0-4.62 1.335-4.62 3.736-.034 4.493 6.298 3.23 6.298 5.577 0 .74-.577 1.191-1.48 1.191a1.453 1.453 0 01-1.57-1.444H.76c.088 2.562 2.218 3.915 4.943 3.915 2.957 0 4.619-1.768 4.619-3.898zm2.382.271c0 2.617 1.462 3.5 3.555 3.5h1.57v-2.616h-1.1c-.686 0-.938-.253-.938-.848v-4.042h2.021V7.976H15.79V5.522h-3.086v2.454h-1.227v2.563h1.227zm16.783-6.569h-3.086v5.468a1.875 1.875 0 01-1.949 2.129 1.879 1.879 0 01-1.931-2.129V7.976h-3.067v5.883c0 2.689 1.57 4.295 3.9 4.295a3.669 3.669 0 003.05-1.48v1.372h3.086zm1.606 5.017c0 3.176 1.967 5.2 4.439 5.2a3.483 3.483 0 003.1-1.588v1.441h3.086V4.692h-3.081v4.674a3.7 3.7 0 00-3.1-1.534c-2.477 0-4.444 1.985-4.444 5.161zm7.543.018a2.248 2.248 0 01-2.2 2.49 2.275 2.275 0 01-2.2-2.508 2.242 2.242 0 012.2-2.472 2.248 2.248 0 012.201 2.489zm9.961 1.263l-2.328-6.3h-3.446l4.1 9.727-2.313 5.127h3.32l6.316-14.852h-3.338zm31.905-8.9v12.672h7.128v-2.382h-4.041V5.378zm7.994 7.615c0 3.176 1.967 5.2 4.421 5.2a3.561 3.561 0 003.122-1.57v1.427h3.086V7.976h-3.084v1.426a3.505 3.505 0 00-3.1-1.57c-2.481 0-4.443 1.985-4.443 5.161zm7.543.018a2.248 2.248 0 01-2.2 2.49 2.275 2.275 0 01-2.2-2.508 2.242 2.242 0 012.2-2.472 2.248 2.248 0 012.202 2.493zm5.811 1.534c0 2.617 1.462 3.5 3.555 3.5h1.57v-2.612h-1.1c-.686 0-.938-.253-.938-.848v-4.042h2.023V7.976h-2.021V5.522h-3.086v2.454h-1.227v2.563h1.227zm5.883-6.569l3.573 10.07h3.808l3.573-10.07h-3.284l-2.184 7.182-2.184-7.182zm12.255 10.074h3.086V7.976h-3.086zM121.54 6.93a1.7 1.7 0 001.823-1.66 1.7 1.7 0 00-1.823-1.678 1.707 1.707 0 00-1.841 1.678 1.7 1.7 0 001.841 1.66zm3.158 6.063c0 3.176 1.967 5.2 4.421 5.2a3.561 3.561 0 003.122-1.57v1.423h3.086V7.976h-3.086v1.426a3.505 3.505 0 00-3.1-1.57c-2.476 0-4.443 1.985-4.443 5.161zm7.543.018a2.248 2.248 0 01-2.2 2.49 2.275 2.275 0 01-2.2-2.508 2.242 2.242 0 012.2-2.472 2.248 2.248 0 012.201 2.489z" fill="#30374b"/><path data-name="Контур 93" d="M59.187 18.046h3.086V7.976h-3.086zM60.744 6.93a1.7 1.7 0 001.823-1.66 1.7 1.7 0 00-1.823-1.678 1.707 1.707 0 00-1.841 1.678 1.7 1.7 0 001.841 1.66zm10.719 11.116h3.068v-5.883c0-2.707-1.552-4.295-3.88-4.295a3.692 3.692 0 00-3.05 1.442V7.975h-3.086v10.071h3.086v-5.468a1.871 1.871 0 011.931-2.129 1.871 1.871 0 011.931 2.129z" fill="#838793"/><path data-name="Контур 92" d="M3.12 35.142H1.829v-5.026H.171v-1.077h4.607v1.077H3.12zm7.42 0H9.249V32.51H6.83v2.632H5.539v-6.1H6.83v2.393h2.419v-2.396h1.291zm4.872 0h-3.513v-6.1h3.513v1.06h-2.221v1.342h2.069v1.06h-2.069v1.566h2.223zm3.137-6.1h1.9a3.945 3.945 0 011.842.342 1.253 1.253 0 01.628 1.205 1.532 1.532 0 01-.244.88 1.008 1.008 0 01-.7.436v.043a1.905 1.905 0 01.551.218 1.033 1.033 0 01.4.44 1.73 1.73 0 01.145.769 1.556 1.556 0 01-.6 1.3 2.594 2.594 0 01-1.637.47h-2.285zm1.291 2.419h.751a1.29 1.29 0 00.782-.175.634.634 0 00.218-.526.542.542 0 00-.256-.5 1.636 1.636 0 00-.812-.154h-.684zm0 1.026v1.583h.851a1.148 1.148 0 00.812-.227.806.806 0 00.231-.6.7.7 0 00-.235-.551 1.3 1.3 0 00-.851-.209zm7.788 2.655h-3.514v-6.1h3.513v1.06h-2.222v1.342h2.069v1.06h-2.069v1.566h2.223zm4.693-1.692a1.592 1.592 0 01-.586 1.3 2.547 2.547 0 01-1.663.483 3.92 3.92 0 01-1.726-.373v-1.205q.436.188.9.346a2.871 2.871 0 00.927.158 1 1 0 00.68-.184.6.6 0 00.2-.466.543.543 0 00-.158-.393 1.7 1.7 0 00-.423-.3q-.265-.141-.607-.3-.214-.1-.462-.244a2.577 2.577 0 01-.474-.35 1.689 1.689 0 01-.372-.509 1.63 1.63 0 01-.145-.718 1.563 1.563 0 01.556-1.278 2.311 2.311 0 011.513-.457 3.588 3.588 0 01.906.111 6.406 6.406 0 01.906.316l-.417 1.003a7.176 7.176 0 00-.752-.265 2.507 2.507 0 00-.684-.094.835.835 0 00-.564.171.561.561 0 00-.2.445.582.582 0 00.291.513 8.144 8.144 0 00.863.462 4.983 4.983 0 01.8.462 1.734 1.734 0 01.509.564 1.643 1.643 0 01.182.802zm3.282 1.692h-1.291v-5.026h-1.658v-1.077h4.607v1.077h-1.658zm8.061-1.692a1.592 1.592 0 01-.586 1.3 2.547 2.547 0 01-1.663.483 3.92 3.92 0 01-1.724-.373v-1.205q.436.188.9.346a2.871 2.871 0 00.927.158 1 1 0 00.68-.184.6.6 0 00.2-.466.543.543 0 00-.158-.393 1.7 1.7 0 00-.423-.3q-.265-.141-.607-.3-.214-.1-.462-.244a2.577 2.577 0 01-.474-.35 1.689 1.689 0 01-.372-.509 1.63 1.63 0 01-.145-.718 1.563 1.563 0 01.556-1.278 2.311 2.311 0 011.513-.457 3.588 3.588 0 01.906.111 6.406 6.406 0 01.906.316l-.419 1.003a7.175 7.175 0 00-.752-.265 2.507 2.507 0 00-.684-.094.835.835 0 00-.564.171.561.561 0 00-.2.445.582.582 0 00.291.513 8.143 8.143 0 00.863.462 4.983 4.983 0 01.8.462 1.734 1.734 0 01.509.564 1.643 1.643 0 01.182.802zm.927 1.692v-6.1h1.3v5.028h2.479v1.072zm10.018-3.06a4.06 4.06 0 01-.312 1.654 2.383 2.383 0 01-.957 1.1 3.1 3.1 0 01-1.637.393 3.1 3.1 0 01-1.632-.394 2.38 2.38 0 01-.957-1.1 4.09 4.09 0 01-.313-1.665 4.029 4.029 0 01.312-1.65 2.363 2.363 0 01.957-1.09 3.147 3.147 0 011.646-.389 3.106 3.106 0 011.633.389 2.366 2.366 0 01.953 1.094 4.06 4.06 0 01.312 1.658zm-4.454 0a2.692 2.692 0 00.368 1.509 1.314 1.314 0 001.18.551 1.31 1.31 0 001.188-.551 2.742 2.742 0 00.359-1.509 2.742 2.742 0 00-.359-1.512 1.3 1.3 0 00-1.18-.551 1.323 1.323 0 00-1.188.551 2.692 2.692 0 00-.363 1.512zm7.856-.368h2.419v3.163a6.944 6.944 0 01-1 .256 6.632 6.632 0 01-1.171.094 2.706 2.706 0 01-2.1-.8 3.356 3.356 0 01-.735-2.342 3.525 3.525 0 01.367-1.661 2.564 2.564 0 011.081-1.086 3.625 3.625 0 011.74-.385 4.478 4.478 0 01.957.1 4.423 4.423 0 01.855.274l-.427 1.034a3.128 3.128 0 00-.641-.239 2.957 2.957 0 00-.752-.094 1.823 1.823 0 00-.979.256 1.7 1.7 0 00-.634.73 2.494 2.494 0 00-.227 1.094 3.186 3.186 0 00.162 1.06 1.488 1.488 0 00.513.722 1.494 1.494 0 00.915.261 3.5 3.5 0 00.462-.026q.188-.026.359-.06v-1.273h-1.159zm7.434 3.428L65 33.689h-2.222l-.445 1.453H60.94l2.151-6.129h1.581l2.166 6.129zm-.754-2.538l-.444-1.419-.111-.368-.137-.453q-.068-.231-.111-.4-.043.171-.115.423t-.137.479q-.064.227-.1.321l-.436 1.419zm8.148 2.538h-1.642l-2.658-4.616h-.034q.017.436.038.872t.038.872v2.872h-1.153v-6.1h1.633l2.65 4.573h.026l-.035-.845q-.017-.419-.026-.846v-2.885h1.163zm5.685 0h-2.779v-.735l.746-.337v-3.954l-.746-.346v-.735h2.778v.735l-.744.342v3.958l.744.342zm6.274 0h-1.642l-2.658-4.616h-.034q.017.436.038.872t.038.872v2.872h-1.149v-6.1h1.633l2.65 4.573h.017l-.03-.845q-.017-.419-.026-.846v-2.885h1.163zm5.753 0H89.26v-5.026h-1.659v-1.077h4.607v1.077H90.55zm7.42 0h-1.292V32.51H94.26v2.632h-1.29v-6.1h1.291v2.393h2.419v-2.396h1.291zm4.872 0h-3.514v-6.1h3.513v1.06h-2.223v1.342h2.072v1.06h-2.069v1.566h2.223zm10.634-6.1l-1.556 6.1h-1.47l-.829-3.206q-.026-.094-.064-.282t-.085-.41q-.047-.222-.085-.419a2.757 2.757 0 01-.047-.316 2.757 2.757 0 01-.047.316l-.081.415q-.043.218-.085.41t-.068.295l-.821 3.2h-1.47l-1.556-6.1h1.274l.778 3.334q.051.2.111.5t.111.6q.051.3.077.5.026-.214.077-.509t.107-.573q.056-.278.1-.432l.889-3.419h1.222l.889 3.419q.043.154.1.432t.107.577q.051.3.077.5.026-.214.077-.509t.115-.59l.107-.5.778-3.334zm6.044 3.043a4.06 4.06 0 01-.312 1.654 2.383 2.383 0 01-.957 1.1 3.1 3.1 0 01-1.637.393 3.1 3.1 0 01-1.637-.393 2.38 2.38 0 01-.957-1.1 4.09 4.09 0 01-.312-1.658 4.029 4.029 0 01.312-1.65 2.363 2.363 0 01.957-1.09 3.147 3.147 0 011.646-.389 3.106 3.106 0 011.633.389 2.366 2.366 0 01.953 1.094 4.06 4.06 0 01.31 1.647zm-4.454 0a2.692 2.692 0 00.368 1.509 1.314 1.314 0 001.18.551 1.31 1.31 0 001.188-.551 2.742 2.742 0 00.359-1.509 2.742 2.742 0 00-.359-1.509 1.3 1.3 0 00-1.18-.551 1.323 1.323 0 00-1.188.551 2.692 2.692 0 00-.369 1.506zm7.317-3.043a3.038 3.038 0 011.842.453 1.621 1.621 0 01.594 1.376 1.6 1.6 0 01-.158.731 1.661 1.661 0 01-.419.53 2.474 2.474 0 01-.56.355l1.8 2.658h-1.436l-1.456-2.345h-.692v2.342h-1.291v-6.1zm-.094 1.06h-.393v1.65h.419a1.53 1.53 0 00.919-.214.749.749 0 00.278-.633.669.669 0 00-.3-.62 1.809 1.809 0 00-.922-.186zm3.778 5.043v-6.1h1.291v5.025h2.479v1.072zm9.711-3.112a2.954 2.954 0 01-.88 2.329 3.567 3.567 0 01-2.453.782h-1.727v-6.1h1.915a3.773 3.773 0 011.663.342 2.5 2.5 0 011.094 1.004 3.21 3.21 0 01.388 1.641zm-1.342.034a2.129 2.129 0 00-.446-1.489 1.675 1.675 0 00-1.291-.479h-.692v3.971h.556q1.873 0 1.873-2z" fill="#838793"/></svg>