<svg xmlns="http://www.w3.org/2000/svg" width="143" height="41"><path data-name="Прямоугольник 1777" d="M0 0h143v41H0z" fill="none"/><path data-name="Контур 91" d="M10.868 15.029c0-4.465-6.593-3.42-6.593-5.738a1.182 1.182 0 011.368-1.216 1.444 1.444 0 011.539 1.387H10.7c-.133-2.546-2.09-3.99-5-3.99C2.907 5.472.836 6.878.836 9.4c-.036 4.736 6.631 3.406 6.631 5.876 0 .779-.608 1.254-1.558 1.254a1.529 1.529 0 01-1.653-1.52H.8c.093 2.698 2.335 4.123 5.2 4.123 3.12 0 4.868-1.862 4.868-4.104zm2.508.285c0 2.755 1.539 3.686 3.743 3.686h1.653v-2.755h-1.159c-.722 0-.988-.266-.988-.893V11.1h2.128V8.4h-2.128V5.816h-3.249V8.4h-1.292v2.7h1.292zM31.046 8.4H27.8v5.757a1.974 1.974 0 01-2.055 2.243 1.979 1.979 0 01-2.033-2.242V8.4h-3.23v6.194c0 2.831 1.653 4.522 4.1 4.522a3.863 3.863 0 003.218-1.56V19h3.249zm1.691 5.28c0 3.344 2.071 5.472 4.674 5.472a3.667 3.667 0 003.268-1.672V19h3.249V4.94h-3.249v4.921a3.892 3.892 0 00-3.268-1.615c-2.603 0-4.674 2.09-4.674 5.434zm7.942.019a2.367 2.367 0 01-2.318 2.622 2.4 2.4 0 01-2.318-2.641 2.36 2.36 0 012.318-2.6 2.367 2.367 0 012.318 2.62zm10.488 1.33L48.716 8.4h-3.629L49.4 18.639l-2.432 5.4h3.5L57.114 8.4H53.6zm33.592-9.367V19h7.5v-2.508h-4.251V5.662zm8.417 8.018c0 3.344 2.071 5.472 4.655 5.472a3.749 3.749 0 003.287-1.652V19h3.249V8.4h-3.249v1.5a3.69 3.69 0 00-3.268-1.653c-2.603-.001-4.674 2.089-4.674 5.433zm7.942.019a2.367 2.367 0 01-2.318 2.622 2.4 2.4 0 01-2.318-2.641 2.36 2.36 0 012.318-2.6 2.367 2.367 0 012.318 2.62zm6.118 1.615c0 2.755 1.539 3.686 3.743 3.686h1.653v-2.755h-1.159c-.722 0-.988-.266-.988-.893V11.1h2.128V8.4h-2.128V5.816h-3.249V8.4h-1.292v2.7h1.292zM113.43 8.4l3.762 10.6h4.008l3.762-10.6h-3.458l-2.3 7.562-2.3-7.562zM126.331 19h3.249V8.4h-3.249zm1.634-11.7a1.789 1.789 0 001.919-1.748 1.792 1.792 0 00-1.919-1.767 1.8 1.8 0 00-1.938 1.767 1.794 1.794 0 001.938 1.748zm3.325 6.38c0 3.344 2.071 5.472 4.655 5.472a3.749 3.749 0 003.287-1.652V19h3.249V8.4h-3.249v1.5a3.69 3.69 0 00-3.268-1.653c-2.603-.001-4.674 2.089-4.674 5.433zm7.942.019a2.367 2.367 0 01-2.318 2.622 2.4 2.4 0 01-2.314-2.641 2.36 2.36 0 012.318-2.6 2.367 2.367 0 012.314 2.62z" fill="#fff"/><path data-name="Контур 93" d="M62.32 19h3.249V8.4H62.32zm1.634-11.7a1.789 1.789 0 001.919-1.748 1.792 1.792 0 00-1.919-1.767 1.8 1.8 0 00-1.938 1.767A1.794 1.794 0 0063.954 7.3zM75.24 19h3.23v-6.194c0-2.85-1.634-4.522-4.085-4.522A3.888 3.888 0 0071.174 9.8V8.4h-3.249V19h3.249v-5.757A1.97 1.97 0 0173.207 11a1.97 1.97 0 012.033 2.243z" fill="#a4abb5"/><path data-name="Контур 92" d="M3.285 37H1.926v-5.292H.18v-1.134h4.851v1.134H3.285zm7.815 0H9.738v-2.772H7.191V37H5.832v-6.426h1.359v2.52h2.547v-2.52H11.1zm5.13 0h-3.7v-6.426h3.7v1.116h-2.34v1.41h2.178v1.116h-2.181v1.656h2.34zm3.3-6.426h2a4.153 4.153 0 011.939.36 1.319 1.319 0 01.66 1.266 1.613 1.613 0 01-.257.927 1.061 1.061 0 01-.733.459v.045a2.006 2.006 0 01.58.23 1.087 1.087 0 01.419.464 1.821 1.821 0 01.153.81 1.639 1.639 0 01-.635 1.365 2.732 2.732 0 01-1.724.5h-2.4zm1.359 2.547h.792a1.358 1.358 0 00.823-.184.668.668 0 00.229-.554.571.571 0 00-.27-.531 1.722 1.722 0 00-.855-.162h-.72zm0 1.08v1.674h.891a1.209 1.209 0 00.855-.238.849.849 0 00.243-.637.74.74 0 00-.247-.581 1.368 1.368 0 00-.9-.22zm8.2 2.8h-3.7v-6.427h3.7v1.116h-2.34v1.41h2.178v1.116h-2.179v1.656h2.34zm4.941-1.782a1.677 1.677 0 01-.617 1.363 2.682 2.682 0 01-1.75.509 4.127 4.127 0 01-1.819-.391v-1.266q.459.2.95.365a3.023 3.023 0 00.976.166 1.053 1.053 0 00.715-.194.636.636 0 00.211-.49.572.572 0 00-.166-.414 1.794 1.794 0 00-.446-.319q-.279-.148-.639-.319-.225-.108-.486-.256a2.713 2.713 0 01-.5-.369 1.778 1.778 0 01-.392-.536 1.716 1.716 0 01-.153-.756 1.646 1.646 0 01.586-1.346 2.433 2.433 0 011.593-.482 3.778 3.778 0 01.954.117 6.744 6.744 0 01.953.333L33.561 32a7.555 7.555 0 00-.792-.279 2.64 2.64 0 00-.72-.1.879.879 0 00-.594.18.591.591 0 00-.207.468.613.613 0 00.306.54 8.574 8.574 0 00.909.486 5.246 5.246 0 01.841.486 1.825 1.825 0 01.535.594 1.73 1.73 0 01.19.843zM37.485 37h-1.359v-5.292H34.38v-1.134h4.851v1.134h-1.746zm8.487-1.782a1.677 1.677 0 01-.617 1.363 2.682 2.682 0 01-1.755.509 4.127 4.127 0 01-1.813-.39v-1.266q.459.2.949.365a3.023 3.023 0 00.977.166 1.053 1.053 0 00.715-.194.636.636 0 00.211-.49.572.572 0 00-.166-.414 1.794 1.794 0 00-.446-.319q-.279-.148-.639-.319-.225-.108-.486-.256a2.713 2.713 0 01-.5-.369 1.778 1.778 0 01-.391-.536 1.716 1.716 0 01-.153-.756 1.646 1.646 0 01.585-1.345 2.433 2.433 0 011.593-.482 3.778 3.778 0 01.954.117 6.744 6.744 0 01.954.333L45.5 32a7.555 7.555 0 00-.792-.279 2.64 2.64 0 00-.72-.1.879.879 0 00-.594.18.591.591 0 00-.207.468.613.613 0 00.306.54 8.574 8.574 0 00.909.486 5.246 5.246 0 01.841.486 1.825 1.825 0 01.535.594 1.73 1.73 0 01.194.843zM46.953 37v-6.426h1.359v5.3h2.61V37zM57.5 33.778a4.274 4.274 0 01-.328 1.742 2.509 2.509 0 01-1.007 1.156 3.266 3.266 0 01-1.724.414 3.266 3.266 0 01-1.723-.414 2.506 2.506 0 01-1.008-1.161 4.307 4.307 0 01-.328-1.746 4.242 4.242 0 01.328-1.737 2.488 2.488 0 011.008-1.148 3.314 3.314 0 011.732-.41 3.27 3.27 0 011.719.41 2.491 2.491 0 011 1.152 4.274 4.274 0 01.331 1.742zm-4.689 0a2.834 2.834 0 00.389 1.589 1.384 1.384 0 001.242.581 1.38 1.38 0 001.251-.581 2.887 2.887 0 00.378-1.589 2.887 2.887 0 00-.378-1.589 1.37 1.37 0 00-1.242-.58 1.393 1.393 0 00-1.251.58 2.834 2.834 0 00-.388 1.589zm8.271-.387h2.548v3.33a7.311 7.311 0 01-1.053.27 6.983 6.983 0 01-1.233.1 2.849 2.849 0 01-2.214-.847 3.533 3.533 0 01-.774-2.466 3.711 3.711 0 01.387-1.746 2.7 2.7 0 011.139-1.143 3.816 3.816 0 011.832-.4 4.715 4.715 0 011.008.108 4.657 4.657 0 01.9.288l-.45 1.089a3.294 3.294 0 00-.675-.252 3.114 3.114 0 00-.792-.1 1.919 1.919 0 00-1.03.27 1.787 1.787 0 00-.675.761 2.625 2.625 0 00-.239 1.152 3.355 3.355 0 00.171 1.116 1.566 1.566 0 00.54.76 1.573 1.573 0 00.963.275 3.681 3.681 0 00.486-.027q.2-.027.378-.063v-1.341h-1.216zM68.9 37l-.468-1.53H66.1L65.628 37h-1.467l2.268-6.453h1.665L70.371 37zm-.792-2.673l-.468-1.494q-.045-.153-.117-.387t-.144-.477q-.072-.243-.117-.423-.045.18-.122.445T67 32.5q-.067.238-.1.338l-.459 1.494zM76.689 37h-1.728l-2.8-4.86h-.036q.018.459.04.918t.041.918V37h-1.214v-6.426h1.719l2.789 4.815h.027l-.036-.882q-.018-.441-.027-.891v-3.042h1.224zm5.985 0h-2.925v-.774l.783-.36v-4.158l-.783-.36v-.774h2.925v.774l-.783.36v4.158l.783.36zm6.606 0h-1.728l-2.8-4.86h-.036q.018.459.04.918t.041.918V37h-1.214v-6.426H85.3l2.79 4.815h.027l-.036-.882q-.018-.441-.027-.891v-3.042h1.226zm6.057 0h-1.359v-5.292h-1.746v-1.134h4.851v1.134h-1.746zm7.812 0h-1.359v-2.772h-2.547V37h-1.359v-6.426h1.359v2.52h2.547v-2.52h1.359zm5.13 0h-3.7v-6.426h3.7v1.116h-2.34v1.41h2.178v1.116h-2.178v1.656h2.34zm11.2-6.426L117.837 37h-1.548l-.873-3.375q-.027-.1-.067-.3t-.09-.432q-.049-.234-.09-.441a2.9 2.9 0 01-.049-.333 2.9 2.9 0 01-.049.333l-.086.437q-.045.23-.09.432t-.072.31L113.958 37h-1.548l-1.638-6.426h1.341l.819 3.51q.054.207.117.522t.117.63q.054.315.081.531.027-.225.081-.536t.113-.6q.058-.292.1-.455l.936-3.6h1.287l.936 3.6q.045.162.1.455t.113.608q.054.315.081.531.027-.225.081-.536t.121-.621q.068-.311.113-.526l.819-3.51zm6.363 3.2a4.274 4.274 0 01-.328 1.742 2.509 2.509 0 01-1.014 1.16 3.266 3.266 0 01-1.723.414 3.266 3.266 0 01-1.724-.414 2.506 2.506 0 01-1.008-1.161 4.307 4.307 0 01-.328-1.746 4.242 4.242 0 01.328-1.737 2.488 2.488 0 011.008-1.148 3.314 3.314 0 011.733-.41 3.27 3.27 0 011.719.41 2.491 2.491 0 011 1.152 4.274 4.274 0 01.333 1.742zm-4.689 0a2.834 2.834 0 00.387 1.589 1.384 1.384 0 001.242.581 1.38 1.38 0 001.251-.581 2.887 2.887 0 00.378-1.589 2.887 2.887 0 00-.378-1.589 1.37 1.37 0 00-1.242-.58 1.393 1.393 0 00-1.251.58 2.834 2.834 0 00-.391 1.593zm7.7-3.2a3.2 3.2 0 011.939.477 1.707 1.707 0 01.626 1.449 1.681 1.681 0 01-.167.77 1.749 1.749 0 01-.441.558 2.6 2.6 0 01-.59.374l1.89 2.8h-1.51l-1.53-2.466h-.729V37h-1.359v-6.426zm-.1 1.116h-.414v1.737h.441a1.611 1.611 0 00.968-.225.788.788 0 00.292-.666.7.7 0 00-.315-.653 1.9 1.9 0 00-.971-.193zm3.979 5.31v-6.426h1.359v5.3h2.61V37zm10.224-3.276a3.11 3.11 0 01-.927 2.453 3.756 3.756 0 01-2.583.823h-1.818v-6.426h2.016a3.973 3.973 0 011.751.36A2.632 2.632 0 01142.546 32a3.379 3.379 0 01.41 1.724zm-1.413.036a2.241 2.241 0 00-.468-1.566 1.764 1.764 0 00-1.359-.5h-.729v4.185h.585q1.971-.004 1.971-2.119z" fill="#a4abb5"/></svg>