<svg xmlns="http://www.w3.org/2000/svg" width="20" height="16"><path d="M20 1.892a8.524 8.524 0 01-2.35.639 3.944 3.944 0 001.8-2.237 8.725 8.725 0 01-2.6.983 4.148 4.148 0 00-3-1.278 4.068 4.068 0 00-4.1 4.031 3.626 3.626 0 00.1.909 11.608 11.608 0 01-8.425-4.2 4.006 4.006 0 001.25 5.382 3.989 3.989 0 01-1.85-.492A4.09 4.09 0 004.1 9.634a4.575 4.575 0 01-1.85.074 4.109 4.109 0 003.825 2.8A8.36 8.36 0 010 14.181 11.71 11.71 0 006.3 16 11.462 11.462 0 0017.95 4.547a3.569 3.569 0 00-.025-.516A8.06 8.06 0 0020 1.892z" fill="#fff"/></svg>